<svg width="14" height="14" viewBox="0 0 14 14" fill="none" xmlns="http://www.w3.org/2000/svg">
<path d="M5.24992 9.43248L3.22576 7.40832C3.11669 7.29925 2.96875 7.23797 2.81451 7.23797C2.66026 7.23797 2.51233 7.29925 2.40326 7.40832C2.29419 7.51739 2.23291 7.66532 2.23291 7.81957C2.23291 7.89594 2.24795 7.97157 2.27718 8.04213C2.30641 8.1127 2.34925 8.17681 2.40326 8.23082L4.84159 10.6692C5.06909 10.8967 5.43659 10.8967 5.66409 10.6692L11.8358 4.49748C11.9448 4.38841 12.0061 4.24048 12.0061 4.08623C12.0061 3.93199 11.9448 3.78405 11.8358 3.67498C11.7267 3.56591 11.5788 3.50464 11.4245 3.50464C11.2703 3.50464 11.1223 3.56591 11.0133 3.67498L5.24992 9.43248Z" fill="white"/>
</svg>
