<svg width="24" height="22" viewBox="0 0 24 22" fill="none" xmlns="http://www.w3.org/2000/svg">
<path d="M12 1.61719C12.1071 1.61719 12.2249 1.64785 12.3604 1.73242C12.4599 1.79466 12.5466 1.89377 12.6104 2.06152L12.6113 2.0625L14.7959 7.74512L14.9062 8.03418L15.2139 8.06348L20.8428 8.60352C21.0368 8.635 21.1445 8.69693 21.207 8.75684C21.2955 8.84172 21.3729 8.95974 21.4287 9.12793C21.4788 9.27896 21.4887 9.43122 21.457 9.59277C21.4303 9.72902 21.3619 9.85717 21.2334 9.9834L16.957 14.0352L16.7539 14.2275L16.8115 14.502L18.0928 20.5332V20.5342C18.1332 20.7261 18.115 20.869 18.0654 20.9834C17.9968 21.1415 17.9054 21.2641 17.793 21.3594C17.6981 21.4396 17.5913 21.4853 17.458 21.498C17.3572 21.5076 17.2502 21.4844 17.1221 21.3945L17.1104 21.3867L12.2754 18.1943L12 18.0127L11.7246 18.1943L6.88965 21.3867L6.87891 21.3945C6.75064 21.4839 6.643 21.5073 6.54102 21.498C6.40879 21.486 6.30259 21.44 6.20801 21.3594C6.09461 21.2627 6.00312 21.1399 5.93457 20.9824C5.88548 20.8696 5.86568 20.7265 5.90625 20.5332L7.18848 14.502L7.24609 14.2275L7.04297 14.0352L2.76465 9.9834C2.63777 9.85693 2.57166 9.72792 2.54492 9.5918C2.51304 9.42939 2.52275 9.27716 2.57227 9.12695C2.62708 8.96083 2.70338 8.84282 2.79297 8.75684C2.856 8.69636 2.96263 8.63534 3.15234 8.60449L8.78613 8.06348L9.09375 8.03418L9.2041 7.74512L11.3887 2.0625L11.3896 2.06152C11.4534 1.89377 11.5401 1.79466 11.6396 1.73242C11.7751 1.64785 11.8929 1.61719 12 1.61719ZM3.0293 15.8232C3.18265 15.8233 3.32549 15.8794 3.47559 16.0439C3.62281 16.2054 3.69434 16.3881 3.69434 16.6172C3.69433 16.8464 3.62245 17.028 3.47559 17.1885V17.1895L1.64062 19.2002C1.49396 19.361 1.34773 19.4208 1.18066 19.4209C1.01343 19.4209 0.866413 19.3614 0.71875 19.2002C0.570908 19.0387 0.499582 18.8569 0.5 18.6299C0.500507 18.401 0.571985 18.2168 0.719727 18.0537L0.71875 18.0527L2.58008 16.0469L2.58301 16.0439C2.73316 15.8794 2.87588 15.8232 3.0293 15.8232ZM20.9863 15.8232C21.1545 15.8233 21.2999 15.8831 21.4453 16.043L23.2783 18.084L23.2812 18.0869C23.4315 18.2517 23.5 18.4299 23.5 18.6436C23.5 18.8572 23.4315 19.0354 23.2812 19.2002C23.1311 19.3648 22.9884 19.4209 22.835 19.4209C22.6815 19.4209 22.5388 19.3648 22.3887 19.2002L22.3857 19.1973L20.5225 17.1865C20.3765 17.0254 20.3057 16.844 20.3057 16.6172C20.3057 16.3895 20.3768 16.2066 20.5244 16.0439C20.6709 15.8833 20.8179 15.8232 20.9863 15.8232ZM11.5342 5.46777L9.95605 9.49219L6.00977 9.87793L4.92578 9.9834L5.71191 10.7363L8.74414 13.6406L7.84082 17.9346L7.58984 19.126L8.60547 18.4541L11.998 16.2109L15.3916 18.4844L16.4102 19.167L16.1592 17.9668L15.2549 13.6426L18.2861 10.7705L19.0811 10.0156L17.9902 9.90918L14.043 9.52344L12.4658 5.46973L12.002 4.27637L11.5342 5.46777ZM3.51074 0.5C3.67871 0.500105 3.82443 0.559159 3.96973 0.71875L5.80273 2.76074L5.80566 2.76367C5.95581 2.9284 6.02441 3.10673 6.02441 3.32031C6.02437 3.5339 5.95591 3.71221 5.80566 3.87695C5.65899 4.03771 5.51277 4.09657 5.3457 4.09668C5.17836 4.09668 5.03058 4.0374 4.88281 3.87598L3.04883 1.86621C2.90128 1.70449 2.83016 1.52182 2.83008 1.29395C2.83008 1.06586 2.90068 0.881667 3.04883 0.71875C3.19516 0.558631 3.34256 0.5 3.51074 0.5ZM20.5049 0.5C20.6583 0.500006 20.8011 0.555259 20.9512 0.719727C21.0986 0.881289 21.1699 1.0647 21.1699 1.29395C21.1698 1.52299 21.098 1.70487 20.9512 1.86523V1.86621L19.1162 3.87695C18.9695 4.03776 18.8234 4.0966 18.6562 4.09668C18.4889 4.09668 18.3421 4.0374 18.1943 3.87598C18.0465 3.7144 17.9751 3.53282 17.9756 3.30566C17.9761 3.07871 18.0471 2.89644 18.1924 2.73438L20.0557 0.722656L20.0586 0.719727C20.2087 0.555272 20.3515 0.5 20.5049 0.5Z" fill="white" stroke="white"/>
</svg>
