<svg width="24" height="24" viewBox="0 0 24 24" fill="none" xmlns="http://www.w3.org/2000/svg">
<path d="M10.1475 0.504883C12.6795 0.425648 15.147 1.31455 17.0469 2.99023C18.9465 4.66588 20.1363 7.0025 20.374 9.52441C20.6117 12.0466 19.8788 14.5653 18.3252 16.5664L18.0547 16.9141L23.2363 22.0957L23.2432 22.1016C23.3225 22.1755 23.3856 22.2652 23.4297 22.3643C23.4738 22.4633 23.4981 22.5703 23.5 22.6787C23.5019 22.787 23.482 22.8947 23.4414 22.9951C23.4008 23.0956 23.3403 23.187 23.2637 23.2637C23.187 23.3403 23.0956 23.4008 22.9951 23.4414C22.8947 23.482 22.787 23.5019 22.6787 23.5C22.5703 23.4981 22.4633 23.4738 22.3643 23.4297C22.2652 23.3856 22.1755 23.3225 22.1016 23.2432L22.0957 23.2363L16.9141 18.0547L16.5664 18.3252C14.5653 19.8788 12.0466 20.6117 9.52441 20.374C7.0025 20.1363 4.66588 18.9465 2.99023 17.0469C1.31455 15.147 0.425648 12.6795 0.504883 10.1475C0.584196 7.61532 1.62562 5.20837 3.41699 3.41699C5.20837 1.62562 7.61532 0.584196 10.1475 0.504883ZM10.458 2.11328C8.24499 2.11328 6.12246 2.99277 4.55762 4.55762C2.99277 6.12246 2.11328 8.24499 2.11328 10.458C2.11329 11.5538 2.3297 12.639 2.74902 13.6514C3.16836 14.6636 3.78286 15.5836 4.55762 16.3584C5.33242 17.1332 6.25234 17.7477 7.26465 18.167C8.27702 18.5863 9.36223 18.8018 10.458 18.8018C11.5538 18.8017 12.639 18.5863 13.6514 18.167C14.6637 17.7477 15.5836 17.1332 16.3584 16.3584C17.1332 15.5836 17.7477 14.6637 18.167 13.6514C18.5863 12.639 18.8017 11.5538 18.8018 10.458C18.8018 8.24503 17.9232 6.12245 16.3584 4.55762C14.7936 2.9928 12.671 2.11331 10.458 2.11328Z" fill="white" stroke="white"/>
</svg>
