<svg width="25" height="25" viewBox="0 0 30 30" fill="none" xmlns="http://www.w3.org/2000/svg">
<path fill-rule="evenodd" clip-rule="evenodd" d="M24.292 2.29205C24.4795 2.10458 24.7338 1.99927 24.999 1.99927C25.2642 1.99927 25.5185 2.10458 25.706 2.29205L29.706 6.29205C29.7991 6.38494 29.873 6.4953 29.9234 6.61679C29.9738 6.73828 29.9998 6.86852 29.9998 7.00005C29.9998 7.13159 29.9738 7.26183 29.9234 7.38332C29.873 7.50481 29.7991 7.61516 29.706 7.70805L21.822 15.5921C21.67 15.7446 21.4944 15.8715 21.302 15.9681L13.448 19.8941C13.2604 19.9877 13.0482 20.02 12.8412 19.9864C12.6343 19.9528 12.4432 19.8551 12.2948 19.707C12.1465 19.5588 12.0484 19.3678 12.0145 19.1609C11.9807 18.9541 12.0127 18.7418 12.106 18.5541L16.032 10.6981C16.1285 10.5056 16.2555 10.33 16.408 10.1781L24.292 2.29205ZM25 4.41405L17.82 11.5941L15.746 15.7461L16.254 16.2541L20.408 14.1781L27.586 7.00005L25 4.41405ZM20 4.00005L18 6.00005H9.8C8.944 6.00005 8.36 6.00005 7.912 6.03805C7.472 6.07405 7.248 6.13805 7.092 6.21805C6.71569 6.4098 6.40974 6.71575 6.218 7.09205C6.138 7.24805 6.074 7.47205 6.038 7.91205C6 8.36005 6 8.94405 6 9.80005V22.2001C6 23.0561 6 23.6401 6.038 24.0881C6.074 24.5281 6.138 24.7521 6.218 24.9081C6.40974 25.2844 6.71569 25.5903 7.092 25.7821C7.248 25.8621 7.472 25.9261 7.912 25.9621C8.362 26.0001 8.944 26.0001 9.8 26.0001H22.2C23.056 26.0001 23.64 26.0001 24.088 25.9621C24.528 25.9261 24.752 25.8621 24.908 25.7821C25.2843 25.5903 25.5903 25.2844 25.782 24.9081C25.862 24.7521 25.926 24.5281 25.962 24.0881C26 23.6381 26 23.0561 26 22.2001V14.0001L28 12.0001V22.2401C28 23.0461 28 23.7101 27.956 24.2521C27.91 24.8141 27.812 25.3321 27.564 25.8161C27.1805 26.5687 26.5686 27.1806 25.816 27.5641C25.33 27.8121 24.814 27.9101 24.252 27.9561C23.712 28.0001 23.046 28.0001 22.242 28.0001H9.76C8.954 28.0001 8.29 28.0001 7.748 27.9561C7.186 27.9101 6.668 27.8121 6.184 27.5641C5.43139 27.1806 4.81949 26.5687 4.436 25.8161C4.188 25.3301 4.09 24.8141 4.044 24.2521C4 23.7121 4 23.0461 4 22.2401V9.76005C4 8.95405 4 8.29005 4.044 7.74805C4.09 7.18605 4.188 6.66805 4.436 6.18405C4.81949 5.43144 5.43139 4.81954 6.184 4.43605C6.67 4.18805 7.186 4.09005 7.748 4.04405C8.288 4.00005 8.954 4.00005 9.76 4.00005H20Z" fill="white"/>
</svg>
