<svg width="35" height="35" viewBox="0 0 35 35" fill="none" xmlns="http://www.w3.org/2000/svg">
<path d="M23.3333 5.83341H27.7083C28.4819 5.83341 29.2237 6.1407 29.7707 6.68768C30.3177 7.23466 30.625 7.97652 30.625 8.75007V10.2084M23.3333 29.1667H27.7083C28.4819 29.1667 29.2237 28.8594 29.7707 28.3125C30.3177 27.7655 30.625 27.0236 30.625 26.2501V24.7917M23.3348 17.5001H30.6265M30.6265 17.5001L27.7098 14.5834M30.6265 17.5001L27.7098 20.4167M6.45313 28.3326L15.2031 30.9576C15.6387 31.0883 16.0988 31.1154 16.5467 31.0366C16.9946 30.9579 17.4179 30.7755 17.7828 30.504C18.1476 30.2325 18.444 29.8795 18.6481 29.4731C18.8522 29.0667 18.9584 28.6182 18.9583 28.1634V6.83674C18.9584 6.38196 18.8522 5.93346 18.6481 5.52706C18.444 5.12066 18.1476 4.76761 17.7828 4.49613C17.4179 4.22465 16.9946 4.04225 16.5467 3.9635C16.0988 3.88474 15.6387 3.91182 15.2031 4.04257L6.45313 6.66757C5.85232 6.84792 5.32567 7.21716 4.95132 7.72049C4.57696 8.22383 4.37486 8.83445 4.375 9.46174V25.5384C4.37486 26.1657 4.57696 26.7763 4.95132 27.2796C5.32567 27.783 5.85232 28.1522 6.45313 28.3326Z" stroke="#9334E9" stroke-width="2" stroke-linecap="round" stroke-linejoin="round"/>
</svg>
