<svg width="186" height="91" viewBox="0 0 226 131" fill="none" xmlns="http://www.w3.org/2000/svg">
<path d="M32.0972 51.0965C48.4324 36.5674 47.523 11.7932 62.6361 26.9062C77.7491 42.0193 77.7491 66.5224 62.6361 81.6354C47.523 96.7485 23.0199 96.7485 7.9069 81.6354C-7.20615 66.5224 15.762 65.6257 32.0972 51.0965Z" fill="url(#paint0_linear_141_68)"/>
<circle cx="14.1837" cy="33.3388" r="13.9318" fill="#7E68FF"/>
<path d="M122.695 78L120.293 70.3828H105.703L103.242 78H91.1133L107.52 35.5781H118.477L134.883 78H122.695ZM108.809 60.7734H117.188L113.145 48.1758H112.852L108.809 60.7734ZM139.512 78V35.5781H150.527V50.5195H166.992V35.5781H178.008V78H166.992V60.8906H150.527V78H139.512ZM203.32 78.8203C192.188 78.8203 184.746 70.793 184.746 58.7227V35.5781H195.762V58.7227C195.762 64.9922 198.457 68.4199 203.32 68.4492C208.184 68.4199 210.879 64.9922 210.879 58.7227V35.5781H221.895V58.7227C221.895 70.793 214.453 78.8203 203.32 78.8203Z" fill="url(#paint1_linear_141_68)"/>
<defs>
<linearGradient id="paint0_linear_141_68" x1="-17.0846" y1="67.8585" x2="231.21" y2="-53.0384" gradientUnits="userSpaceOnUse">
<stop stop-color="#5432FF"/>
<stop offset="1" stop-color="#928EFF" stop-opacity="0.3"/>
</linearGradient>
<linearGradient id="paint1_linear_141_68" x1="158" y1="21" x2="158" y2="93" gradientUnits="userSpaceOnUse">
<stop stop-color="#6550E9"/>
<stop offset="1" stop-color="#B587F0"/>
</linearGradient>
</defs>
</svg>
