<svg width="60" height="60" viewBox="0 0 60 60" fill="none" xmlns="http://www.w3.org/2000/svg">
<rect x="1" y="1" width="58" height="58" rx="29" fill="#EAEAEA"/>
<rect x="1" y="1" width="58" height="58" rx="29" stroke="#E5CCFE" stroke-width="2"/>
<path d="M30.4997 17.8333C32.0468 17.8333 33.5305 18.4478 34.6245 19.5418C35.7184 20.6358 36.333 22.1195 36.333 23.6666C36.333 25.2137 35.7184 26.6974 34.6245 27.7914C33.5305 28.8853 32.0468 29.4999 30.4997 29.4999C28.9526 29.4999 27.4688 28.8853 26.3749 27.7914C25.2809 26.6974 24.6663 25.2137 24.6663 23.6666C24.6663 22.1195 25.2809 20.6358 26.3749 19.5418C27.4688 18.4478 28.9526 17.8333 30.4997 17.8333ZM30.4997 32.4166C36.9455 32.4166 42.1663 35.027 42.1663 38.2499V41.1666H18.833V38.2499C18.833 35.027 24.0538 32.4166 30.4997 32.4166Z" fill="#929292"/>
</svg>
