<svg width="30" height="30" viewBox="0 0 30 30" fill="none" xmlns="http://www.w3.org/2000/svg">
<path d="M12.6797 0.505859C15.8766 0.405725 18.9918 1.52794 21.3906 3.64355C23.7894 5.75928 25.2918 8.71011 25.5918 11.8945C25.8917 15.0788 24.9672 18.2577 23.0059 20.7842L22.7354 21.1328L29.1387 27.5361C29.2501 27.64 29.3394 27.7652 29.4014 27.9043C29.4633 28.0434 29.4973 28.1934 29.5 28.3457C29.5027 28.498 29.474 28.6498 29.417 28.791C29.3599 28.932 29.2755 29.0604 29.168 29.168C29.0604 29.2755 28.932 29.3599 28.791 29.417C28.6498 29.474 28.498 29.5027 28.3457 29.5C28.1934 29.4973 28.0434 29.4633 27.9043 29.4014C27.7652 29.3394 27.64 29.2501 27.5361 29.1387L21.1328 22.7354L20.7842 23.0059C18.2577 24.9672 15.0788 25.8917 11.8945 25.5918C8.71011 25.2918 5.75928 23.7894 3.64355 21.3906C1.52794 18.9918 0.405725 15.8766 0.505859 12.6797C0.60608 9.48285 1.921 6.44424 4.18262 4.18262C6.44424 1.921 9.48285 0.60608 12.6797 0.505859ZM13.0723 2.76758C10.3392 2.76761 7.71774 3.85258 5.78516 5.78516C3.85258 7.71774 2.76761 10.3392 2.76758 13.0723C2.76758 14.4255 3.03395 15.7654 3.55176 17.0156C4.06962 18.2659 4.82829 19.4025 5.78516 20.3594C6.74208 21.3163 7.87862 22.0749 9.12891 22.5928C10.3792 23.1106 11.719 23.3779 13.0723 23.3779C14.4255 23.3779 15.7654 23.1106 17.0156 22.5928C18.2659 22.0749 19.4024 21.3163 20.3594 20.3594C21.3163 19.4024 22.0749 18.2659 22.5928 17.0156C23.1106 15.7654 23.3779 14.4255 23.3779 13.0723C23.3779 10.3392 22.292 7.71774 20.3594 5.78516C18.4268 3.85263 15.8053 2.76758 13.0723 2.76758Z" fill="#9334E9" stroke="#9334E9"/>
</svg>
