<svg width="50" height="50" viewBox="0 0 50 50" fill="none" xmlns="http://www.w3.org/2000/svg">
<path d="M25 4.1665C26.6576 4.1665 28.2473 4.82498 29.4194 5.99709C30.5915 7.16919 31.25 8.7589 31.25 10.4165C31.25 12.0741 30.5915 13.6638 29.4194 14.8359C28.2473 16.008 26.6576 16.6665 25 16.6665C23.3424 16.6665 21.7527 16.008 20.5806 14.8359C19.4085 13.6638 18.75 12.0741 18.75 10.4165C18.75 8.7589 19.4085 7.16919 20.5806 5.99709C21.7527 4.82498 23.3424 4.1665 25 4.1665ZM22.9167 45.8332H16.6667V33.3332H12.5V18.7498H37.5V33.3332H33.3333V45.8332H27.0833V37.4998H22.9167V45.8332Z" fill="white"/>
</svg>
