<svg width="50" height="50" viewBox="0 0 50 50" fill="none" xmlns="http://www.w3.org/2000/svg">
<path d="M14.0625 20.3125C14.0625 19.6944 14.2458 19.0902 14.5892 18.5763C14.9325 18.0624 15.4206 17.6619 15.9916 17.4254C16.5626 17.1889 17.191 17.127 17.7972 17.2475C18.4033 17.3681 18.9602 17.6658 19.3972 18.1028C19.8342 18.5398 20.1319 19.0967 20.2525 19.7028C20.373 20.309 20.3111 20.9374 20.0746 21.5084C19.8381 22.0794 19.4376 22.5675 18.9237 22.9108C18.4098 23.2542 17.8056 23.4375 17.1875 23.4375C16.3587 23.4375 15.5638 23.1083 14.9778 22.5222C14.3917 21.9362 14.0625 21.1413 14.0625 20.3125ZM32.8125 23.4375C33.4306 23.4375 34.0348 23.2542 34.5487 22.9108C35.0626 22.5675 35.4631 22.0794 35.6996 21.5084C35.9361 20.9374 35.998 20.309 35.8775 19.7028C35.7569 19.0967 35.4592 18.5398 35.0222 18.1028C34.5852 17.6658 34.0283 17.3681 33.4222 17.2475C32.816 17.127 32.1876 17.1889 31.6166 17.4254C31.0456 17.6619 30.5575 18.0624 30.2142 18.5763C29.8708 19.0902 29.6875 19.6944 29.6875 20.3125C29.6875 21.1413 30.0167 21.9362 30.6028 22.5222C31.1888 23.1083 31.9837 23.4375 32.8125 23.4375ZM46.0938 15.625V37.5C46.0938 39.3648 45.353 41.1532 44.0343 42.4718C42.7157 43.7905 40.9273 44.5312 39.0625 44.5312H10.9375C9.0727 44.5312 7.28427 43.7905 5.96566 42.4718C4.64704 41.1532 3.90625 39.3648 3.90625 37.5V15.625C3.90625 13.7602 4.64704 11.9718 5.96566 10.6532C7.28427 9.33454 9.0727 8.59375 10.9375 8.59375H22.6562V3.125C22.6562 2.5034 22.9032 1.90726 23.3427 1.46772C23.7823 1.02818 24.3784 0.78125 25 0.78125C25.6216 0.78125 26.2177 1.02818 26.6573 1.46772C27.0968 1.90726 27.3438 2.5034 27.3438 3.125V8.59375H39.0625C40.9273 8.59375 42.7157 9.33454 44.0343 10.6532C45.353 11.9718 46.0938 13.7602 46.0938 15.625ZM41.4062 15.625C41.4062 15.0034 41.1593 14.4073 40.7198 13.9677C40.2802 13.5282 39.6841 13.2812 39.0625 13.2812H10.9375C10.3159 13.2812 9.71976 13.5282 9.28022 13.9677C8.84068 14.4073 8.59375 15.0034 8.59375 15.625V37.5C8.59375 38.1216 8.84068 38.7177 9.28022 39.1573C9.71976 39.5968 10.3159 39.8438 10.9375 39.8438H39.0625C39.6841 39.8438 40.2802 39.5968 40.7198 39.1573C41.1593 38.7177 41.4062 38.1216 41.4062 37.5V15.625ZM39.0625 31.6406C39.0625 33.1946 38.4452 34.685 37.3463 35.7838C36.2475 36.8827 34.7571 37.5 33.2031 37.5H16.7969C15.2429 37.5 13.7525 36.8827 12.6537 35.7838C11.5548 34.685 10.9375 33.1946 10.9375 31.6406C10.9375 30.0866 11.5548 28.5963 12.6537 27.4974C13.7525 26.3986 15.2429 25.7812 16.7969 25.7812H33.2031C34.7571 25.7812 36.2475 26.3986 37.3463 27.4974C38.4452 28.5963 39.0625 30.0866 39.0625 31.6406ZM23.4375 30.4688V32.8125H26.5625V30.4688H23.4375ZM16.7969 32.8125H18.75V30.4688H16.7969C16.4861 30.4688 16.188 30.5922 15.9682 30.812C15.7485 31.0318 15.625 31.3298 15.625 31.6406C15.625 31.9514 15.7485 32.2495 15.9682 32.4693C16.188 32.689 16.4861 32.8125 16.7969 32.8125ZM34.375 31.6406C34.375 31.3298 34.2515 31.0318 34.0318 30.812C33.812 30.5922 33.5139 30.4688 33.2031 30.4688H31.25V32.8125H33.2031C33.5139 32.8125 33.812 32.689 34.0318 32.4693C34.2515 32.2495 34.375 31.9514 34.375 31.6406Z" fill="white"/>
</svg>
