<svg width="24" height="24" viewBox="0 0 24 24" fill="none" xmlns="http://www.w3.org/2000/svg">
<path fill-rule="evenodd" clip-rule="evenodd" d="M0.857143 24H24V22.2857H1.71429V0H0V23.1429L0.857143 24ZM3.42857 19.7143V6L4.28571 5.14286H7.71429L8.57143 6V19.7143L7.71429 20.5714H4.28571L3.42857 19.7143ZM6.85714 18.8571V6.85714H5.14286V18.8571H6.85714ZM17.1429 2.57143V19.7143L18 20.5714H21.4286L22.2857 19.7143V2.57143L21.4286 1.71429H18L17.1429 2.57143ZM20.5714 3.42857V18.8571H18.8571V3.42857H20.5714ZM10.2857 19.7143V9.42857L11.1429 8.57143H14.5714L15.4286 9.42857V19.7143L14.5714 20.5714H11.1429L10.2857 19.7143ZM13.7143 18.8571V10.2857H12V18.8571H13.7143Z" fill="#9334E9"/>
</svg>
